<svg width="30" height="31" viewBox="0 0 30 31" fill="none" xmlns="http://www.w3.org/2000/svg">
<path d="M20.5701 16.353C22.048 15.1838 23.1267 13.5805 23.6561 11.7662C24.1856 9.95185 24.1395 8.01668 23.5243 6.22991C22.9091 4.44313 21.7553 2.89361 20.2235 1.7969C18.6917 0.70019 16.8581 0.11084 14.9776 0.11084C13.0972 0.11084 11.2636 0.70019 9.73176 1.7969C8.19996 2.89361 7.04619 4.44313 6.43097 6.22991C5.81574 8.01668 5.76967 9.95185 6.29914 11.7662C6.82862 13.5805 7.90731 15.1838 9.38516 16.353C6.85284 17.3731 4.64329 19.0652 2.99209 21.2487C1.34088 23.4323 0.309915 26.0255 0.00909244 28.7519C-0.0126827 28.9509 0.00474588 29.1524 0.0603826 29.3446C0.116019 29.5369 0.208775 29.7163 0.333353 29.8725C0.58495 30.1881 0.950895 30.3902 1.35068 30.4344C1.75047 30.4786 2.15136 30.3613 2.46515 30.1083C2.77894 29.8553 2.97993 29.4874 3.02391 29.0854C3.35491 26.1223 4.75997 23.3858 6.97063 21.3986C9.18129 19.4114 12.0426 18.3129 15.0078 18.3129C17.973 18.3129 20.8343 19.4114 23.045 21.3986C25.2556 23.3858 26.6607 26.1223 26.9917 29.0854C27.0327 29.4578 27.2094 29.8018 27.4878 30.0509C27.7661 30.3 28.1264 30.4367 28.4991 30.4344H28.6649C29.06 30.3887 29.4212 30.1878 29.6697 29.8754C29.9181 29.5631 30.0338 29.1647 29.9914 28.767C29.6892 26.0329 28.6526 23.4331 26.993 21.2461C25.3333 19.0592 23.113 17.3677 20.5701 16.353ZM14.9776 15.2768C13.7851 15.2768 12.6193 14.9212 11.6278 14.255C10.6362 13.5888 9.86336 12.6418 9.40699 11.534C8.95062 10.4261 8.83122 9.20701 9.06387 8.03089C9.29653 6.85478 9.87079 5.77445 10.7141 4.92651C11.5573 4.07858 12.6317 3.50113 13.8013 3.26719C14.971 3.03325 16.1833 3.15332 17.2851 3.61221C18.3869 4.07111 19.3286 4.84823 19.9911 5.84529C20.6536 6.84235 21.0073 8.01458 21.0073 9.21373C21.0073 10.8218 20.372 12.3639 19.2412 13.501C18.1105 14.638 16.5768 15.2768 14.9776 15.2768Z" fill="white"/>
</svg>
