<svg width="30" height="28" viewBox="0 0 30 28" fill="none" xmlns="http://www.w3.org/2000/svg">
<g clip-path="url(#clip0_9_42)">
<path d="M28.5337 4.965H5.26737L4.92237 1.11273C4.89511 0.80865 4.755 0.525794 4.52963 0.319851C4.30425 0.113909 4.00994 -0.000196879 3.70464 2.55007e-07H1.22283C0.898779 2.55007e-07 0.588005 0.128727 0.358869 0.357862C0.129734 0.586998 0.00100708 0.897772 0.00100708 1.22182C0.00100708 1.54586 0.129734 1.85664 0.358869 2.08577C0.588005 2.31491 0.898779 2.44364 1.22283 2.44364H2.58646L3.99237 18.1023C4.09192 19.2314 4.70146 20.4559 5.75283 21.2877C3.85873 23.7068 5.58919 27.2727 8.67101 27.2727C11.2278 27.2727 13.0306 24.7227 12.1537 22.3064H18.8424C17.9669 24.72 19.7656 27.2727 22.3265 27.2727C23.3088 27.2716 24.2505 26.8809 24.9451 26.1864C25.6397 25.4918 26.0304 24.55 26.0315 23.5677C26.0304 22.5854 25.6397 21.6437 24.9451 20.9491C24.2505 20.2545 23.3088 19.8638 22.3265 19.8627H8.67919C7.75055 19.8627 6.94192 19.3036 6.59283 18.4868L26.1215 17.3386C26.3813 17.3235 26.6295 17.2257 26.8299 17.0597C27.0302 16.8936 27.1724 16.6679 27.2356 16.4155L29.7187 6.48409C29.7637 6.30383 29.767 6.1157 29.7284 5.93398C29.6898 5.75226 29.6103 5.58172 29.4959 5.4353C29.3816 5.28889 29.2354 5.17044 29.0684 5.08895C28.9015 5.00746 28.7195 4.96507 28.5337 4.965ZM8.66964 24.8291C8.34525 24.814 8.03915 24.6745 7.81492 24.4396C7.59069 24.2047 7.46558 23.8925 7.46558 23.5677C7.46558 23.243 7.59069 22.9307 7.81492 22.6958C8.03915 22.4609 8.34525 22.3214 8.66964 22.3064C8.99403 22.3214 9.30014 22.4609 9.52437 22.6958C9.74859 22.9307 9.8737 23.243 9.8737 23.5677C9.8737 23.8925 9.74859 24.2047 9.52437 24.4396C9.30014 24.6745 8.99403 24.814 8.66964 24.8291ZM22.3265 24.8291C22.0021 24.814 21.696 24.6745 21.4717 24.4396C21.2475 24.2047 21.1224 23.8925 21.1224 23.5677C21.1224 23.243 21.2475 22.9307 21.4717 22.6958C21.696 22.4609 22.0021 22.3214 22.3265 22.3064C22.6508 22.3214 22.957 22.4609 23.1812 22.6958C23.4054 22.9307 23.5305 23.243 23.5305 23.5677C23.5305 23.8925 23.4054 24.2047 23.1812 24.4396C22.957 24.6745 22.6508 24.814 22.3265 24.8291ZM25.0824 14.9523L6.26419 16.0568L5.48692 7.41H26.9683L25.0824 14.9509V14.9523Z" fill="white"/>
</g>
<defs>
<clipPath id="clip0_9_42">
<rect width="30" height="27.2727" fill="white"/>
</clipPath>
</defs>
</svg>
