<svg width="18" height="24" viewBox="0 0 18 24" fill="none" xmlns="http://www.w3.org/2000/svg">
<g clip-path="url(#clip0_9_5)">
<path d="M7.96582 23.1976C1.24711 13.4575 0 12.4579 0 8.87824C0 3.9749 3.9749 0 8.87824 0C13.7816 0 17.7565 3.9749 17.7565 8.87824C17.7565 12.4579 16.5094 13.4575 9.79065 23.1976C9.34976 23.8345 8.40666 23.8345 7.96582 23.1976ZM8.87824 12.5775C10.9213 12.5775 12.5775 10.9213 12.5775 8.87824C12.5775 6.83518 10.9213 5.17897 8.87824 5.17897C6.83518 5.17897 5.17897 6.83518 5.17897 8.87824C5.17897 10.9213 6.83518 12.5775 8.87824 12.5775Z" fill="#3C4C77"/>
</g>
<defs>
<clipPath id="clip0_9_5">
<rect width="18" height="23.8235" fill="white"/>
</clipPath>
</defs>
</svg>
