<svg width="15" height="16" viewBox="0 0 15 16" fill="none" xmlns="http://www.w3.org/2000/svg">
<path d="M15 0.498779H0V1.91282H15V0.498779ZM13.125 8.98304H10.3125C9.28125 8.98304 8.4375 9.83146 8.4375 10.8684V13.6965C8.4375 14.7335 9.28125 15.5819 10.3125 15.5819H13.125C14.1563 15.5819 15 14.7335 15 13.6965V10.8684C15 9.83146 14.1563 8.98304 13.125 8.98304ZM13.5938 13.6965C13.5938 13.9793 13.4063 14.1679 13.125 14.1679H10.3125C10.0312 14.1679 9.84375 13.9793 9.84375 13.6965V10.8684C9.84375 10.5856 10.0312 10.3971 10.3125 10.3971H13.125C13.4063 10.3971 13.5938 10.5856 13.5938 10.8684V13.6965ZM0 5.6836H8.4375V4.26956H0V5.6836ZM4.6875 8.98304H1.875C0.84375 8.98304 0 9.83146 0 10.8684V13.6965C0 14.7335 0.84375 15.5819 1.875 15.5819H4.6875C5.71875 15.5819 6.5625 14.7335 6.5625 13.6965V10.8684C6.5625 9.83146 5.71875 8.98304 4.6875 8.98304ZM5.15625 13.6965C5.15625 13.9793 4.96875 14.1679 4.6875 14.1679H1.875C1.59375 14.1679 1.40625 13.9793 1.40625 13.6965V10.8684C1.40625 10.5856 1.59375 10.3971 1.875 10.3971H4.6875C4.96875 10.3971 5.15625 10.5856 5.15625 10.8684V13.6965Z" fill="#E5E5E5"/>
</svg>
