<svg width="180" height="34" viewBox="0 0 180 34" fill="none" xmlns="http://www.w3.org/2000/svg">
<path d="M161.132 12.982C161.132 11.9733 160.662 11.4689 159.722 11.4689C158.644 11.572 157.945 12.128 157.624 13.1368C157.463 13.6182 157.349 14.1799 157.28 14.8218C157.223 15.4523 157.131 16.1286 157.005 16.8508L160.771 16.0083L161.097 13.3775L161.132 12.982ZM158.81 20.8056C158.81 20.8056 158.495 20.8056 157.865 20.8056C157.567 20.8056 157.28 20.7941 157.005 20.7712C157.005 22.1353 157.733 22.8804 159.189 23.0065C159.59 23.0409 159.98 23.0581 160.358 23.0581C161.332 23.0581 167.528 25.2992 175.598 10.6263H172.664L177.799 3.28992L180 10.6263H177.799C171.196 28.8699 162.639 28.8699 157.469 28.8699C154.5 28.8699 151.95 28.0045 149.818 26.2735C147.502 24.3821 146.344 21.7628 146.344 18.4155C146.344 15.8936 146.998 13.6297 148.304 11.6236C149.52 9.78952 151.164 8.39675 153.239 7.44531C155.314 6.49387 157.555 6.01815 159.962 6.01815C163.08 6.01815 165.436 6.70021 167.029 8.06432C168.634 9.42844 169.431 11.1135 169.42 13.1196C169.42 15.1256 168.462 16.9081 166.548 18.4671C164.634 20.0261 162.054 20.8056 158.81 20.8056Z" fill="#3C4C77"/>
<path d="M144.109 14.925C143.054 14.925 141.971 15.309 140.859 16.0771C139.747 16.8451 139.185 17.573 139.174 18.2608V28.2337H128.823V6.86069H139.174V9.14759C139.759 8.26493 140.481 7.55994 141.341 7.03264C142.212 6.50533 143.135 6.1901 144.109 6.08693V14.925Z" fill="#3C4C77"/>
<path d="M116.322 12.9476C116.093 12.833 115.795 12.7757 115.428 12.7757C115.073 12.7757 114.677 12.8846 114.242 13.1024C113.806 13.3087 113.376 13.5953 112.952 13.9621C112.058 14.7416 111.307 15.6873 110.7 16.7992C110.092 17.9112 109.788 18.9371 109.788 19.8771C109.788 20.8056 110.144 21.4303 110.854 21.7513C111.107 21.8659 111.416 21.9233 111.783 21.9233C112.15 21.9233 112.534 21.8144 112.935 21.5966C113.336 21.3673 113.737 21.0635 114.139 20.6852C114.975 19.8943 115.709 18.9371 116.339 17.8137C116.97 16.6789 117.285 15.6644 117.285 14.7703C117.285 13.8761 116.964 13.2686 116.322 12.9476ZM112.986 28.8699C109.708 28.8699 106.882 27.8325 104.509 25.7577C101.976 23.5568 100.709 20.7884 100.709 17.4526C100.709 14.1054 101.896 11.3714 104.269 9.25076C106.642 7.11861 109.57 6.05254 113.055 6.05254C116.54 6.05254 119.469 7.09569 121.842 9.18198C124.215 11.2568 125.407 14.0366 125.418 17.5214C125.43 19.7567 124.862 21.7341 123.716 23.4536C122.57 25.1731 121.039 26.5028 119.125 27.4428C117.211 28.3827 115.164 28.8585 112.986 28.8699Z" fill="#3C4C77"/>
<path d="M98.3538 26.6862C96.1758 28.1649 93.8659 28.9043 91.4243 28.9043C88.9941 28.9043 87.0167 28.2165 85.4921 26.8409C83.9675 25.4539 83.2052 23.5911 83.2052 21.2527V12.3114H81.245V6.86069H83.2052V1.08327L93.4877 0.0343894V6.86069H98.3538V12.3114H93.4877V17.7106C93.4877 19.3269 93.8488 20.5018 94.5709 21.2355C95.3046 21.9577 96.5655 22.3187 98.3538 22.3187V26.6862Z" fill="#3C4C77"/>
<path d="M67.2141 28.9043C62.0672 28.9043 58.6512 28.2681 56.9661 26.9957V19.1205C57.0119 19.132 57.1782 19.1836 57.4647 19.2753C57.7628 19.367 58.1353 19.4816 58.5824 19.6192C59.6255 19.9401 60.7203 20.2439 61.8666 20.5305C63.0244 20.8056 63.9529 20.9432 64.6521 20.9432C65.7984 20.9432 66.3716 20.5935 66.3716 19.8943C66.3716 19.3555 65.8787 18.7824 64.8929 18.1748C64.4458 17.8997 63.9357 17.6131 63.3625 17.3151C62.8008 17.017 62.2277 16.6846 61.6431 16.3178C60.2102 15.4351 59.0581 14.4034 58.1869 13.2227C57.3272 12.042 56.8973 10.5518 56.8973 8.75211C56.8973 4.82025 58.9721 2.178 63.1218 0.825346C64.8069 0.275115 66.7499 0 68.9508 0C71.1632 0 73.473 0.252189 75.8803 0.756567C76.3732 0.859736 76.6999 0.934246 76.8604 0.980099V8.87247C73.7424 8.20761 71.5014 7.87518 70.1372 7.87518C69.6099 7.87518 69.2145 7.96688 68.9508 8.15029C68.6872 8.3337 68.5553 8.54004 68.5553 8.7693C68.5553 8.99857 68.67 9.23929 68.8992 9.49148C69.1285 9.73221 69.524 9.97867 70.0857 10.2309C70.6473 10.4716 71.3007 10.7696 72.0459 11.125C72.8024 11.4689 73.5074 11.8414 74.1608 12.2426C77.0954 14.0424 78.5627 16.5012 78.5627 19.6192C78.5627 22.5767 77.5654 24.8636 75.5708 26.4799C73.5533 28.0847 70.7677 28.8929 67.2141 28.9043Z" fill="#3C4C77"/>
<path d="M53.9226 14.6843C53.9112 17.9627 52.8279 20.8858 50.6728 23.4536C49.068 25.3679 46.8843 26.732 44.1216 27.5459C42.6887 27.9701 41.061 28.1993 39.2383 28.2337V33.8048H29.0247V6.86069H34.6645L37.0546 10.1621C39.6224 7.42239 42.3219 6.05254 45.1533 6.05254C47.9847 6.05254 50.1513 6.86642 51.6529 8.49419C53.1661 10.122 53.9226 12.1853 53.9226 14.6843ZM44.3796 13.2915C44.1388 13.1998 43.8408 13.154 43.4854 13.154C42.7633 13.154 41.9838 13.5724 41.147 14.4092C40.3216 15.2345 39.6854 16.1802 39.2383 17.2463V22.1812C39.4332 22.0436 39.7198 21.8602 40.0981 21.631C40.4878 21.3902 40.912 21.1036 41.3705 20.7712C44.0758 18.8454 45.4284 16.8852 45.4284 14.8906C45.4284 14.0882 45.0788 13.5552 44.3796 13.2915Z" fill="#3C4C77"/>
<path d="M10.2824 16.8164C10.2824 20.5763 11.1938 22.4563 13.0164 22.4563C13.9335 22.4563 14.4665 22.0092 14.6155 21.1151C14.6614 20.84 14.6843 20.5362 14.6843 20.2038V6.86069H24.8979V28.2337H19.2581L16.7992 24.8808C15.3434 26.8639 13.2399 28.1535 10.4888 28.7496C7.11861 29.4717 4.40185 28.8986 2.33848 27.0301C0.779494 25.6201 0 23.7574 0 21.4418V6.86069H10.2824V16.8164Z" fill="#3C4C77"/>
</svg>
