<svg width="134" height="175" viewBox="0 0 134 175" fill="none" xmlns="http://www.w3.org/2000/svg">
<path fill-rule="evenodd" clip-rule="evenodd" d="M26.1868 96.2609C-14 65.4999 37.9332 5.27567 53 -9.12645e-05C20.5185 11.3736 -28.5 66.0003 24.2286 105.82C23.574 114.155 30.2533 130.847 37.4221 138.264C45.7884 146.92 66.1826 167.86 115.004 167.703C115.004 167.703 65.0407 166.796 39.2823 128.257C35.8908 121.015 34.2897 114.516 34.068 108.796C45.2786 111.92 54.766 117.223 68.3528 116.085C86.2995 114.582 104.465 93.6151 79.6193 71.7255C60.907 55.2397 33.8202 73.1447 26.1868 96.2609ZM75.7515 103.344C60.7769 105.692 47.1949 101.114 35.307 98.5251C41.6336 77.6511 70.1715 60.5664 84.0393 87.5892C87.3411 94.0232 83.0028 102.207 75.7515 103.344Z" fill="#A68DC4"/>
<path d="M116.206 167.33C116.206 167.33 115.613 163.856 111.502 162.302C118.726 165.033 123.81 166.693 133.654 166.142C129.481 173.655 114.092 175.029 111.453 173.572C115.12 171.013 116.382 169.202 116.206 167.33Z" fill="#A68DC4"/>
</svg>
