<svg width="87" height="48" viewBox="0 0 87 48" fill="none" xmlns="http://www.w3.org/2000/svg">
<path d="M58.088 15.148C57.104 14.548 56.144 14.248 55.208 14.248C53.696 14.248 52.04 14.488 50.24 14.968L48.296 15.436C47.72 15.58 47.276 15.652 46.964 15.652C46.244 15.652 45.884 15.388 45.884 14.86C45.884 14.548 46.148 14.164 46.676 13.708C47.18 13.228 47.864 12.772 48.728 12.34C50.864 11.284 53.18 10.756 55.676 10.756C59.252 10.756 61.544 11.368 62.552 12.592C62.84 12.928 62.984 13.396 62.984 13.996C62.936 16.324 61.856 22.516 59.744 32.572C62.576 31.42 64.304 30.472 64.928 29.728C65.576 28.984 66.08 28.612 66.44 28.612C66.8 28.612 66.98 28.984 66.98 29.728C66.98 30.472 66.752 31.12 66.296 31.672C65.864 32.224 65.168 32.848 64.208 33.544C63.272 34.24 61.544 35.128 59.024 36.208C58.832 37.168 58.472 38.236 57.944 39.412C56.144 44.38 53.204 46.864 49.124 46.864C47.132 46.864 45.44 46.432 44.048 45.568C42.656 44.704 41.96 43.372 41.96 41.572C41.96 40.924 42.296 40.312 42.968 39.736C43.616 39.16 44.576 38.548 45.848 37.9C47.096 37.276 49.544 36.316 53.192 35.02C53.336 34.18 53.456 33.4 53.552 32.68C53.648 31.936 53.756 31.3 53.876 30.772C54.38 27.34 55.376 23.296 56.864 18.64C57.296 17.32 57.704 16.156 58.088 15.148ZM46.712 43.48C47.432 43.864 48.116 44.056 48.764 44.056C49.412 44.08 49.904 43.936 50.24 43.624C50.576 43.336 50.936 42.856 51.32 42.184C51.728 41.512 52.124 40.336 52.508 38.656C51.26 39.088 50.192 39.448 49.304 39.736C48.44 40.024 47.732 40.288 47.18 40.528C46.652 40.768 46.268 40.996 46.028 41.212C45.764 41.428 45.632 41.692 45.632 42.004C45.632 42.604 45.992 43.096 46.712 43.48ZM83.0622 31.168C83.6862 30.712 84.2502 30.16 84.7542 29.512C85.2582 28.84 85.6782 28.504 86.0142 28.504C86.3742 28.504 86.5542 29.032 86.5542 30.088C86.5542 31.12 86.2542 32.104 85.6542 33.04C85.0782 33.952 84.3102 34.72 83.3502 35.344C81.3822 36.64 79.0542 37.288 76.3662 37.288C73.1022 37.288 70.5702 36.472 68.7702 34.84C66.9702 33.208 66.0702 30.94 66.0702 28.036C66.0702 24.46 66.9342 21.064 68.6622 17.848C69.2382 16.792 69.8862 15.82 70.6062 14.932C70.0542 14.284 69.6102 13.612 69.2742 12.916C68.9622 12.196 68.8062 11.656 68.8062 11.296C68.8062 10.648 69.0462 10.324 69.5262 10.324C69.8622 10.348 70.2462 10.576 70.6782 11.008L71.7942 12.088C72.0822 12.376 72.3822 12.616 72.6942 12.808C75.0702 10.792 77.6262 9.784 80.3622 9.784C83.1222 9.784 84.9102 10.552 85.7262 12.088C86.0142 12.664 86.1582 13.372 86.1582 14.212C86.1582 15.484 85.6062 16.552 84.5022 17.416C83.3982 18.28 81.9102 18.712 80.0382 18.712C78.1902 18.712 76.2702 18.328 74.2782 17.56C72.5742 20.464 71.7222 23.5 71.7222 26.668C71.7222 31.06 73.4742 33.256 76.9782 33.256C79.1382 33.256 81.1662 32.56 83.0622 31.168ZM76.0062 15.328C77.2302 15.736 78.5622 15.94 80.0022 15.94C81.4422 15.94 82.1622 15.544 82.1622 14.752C82.1622 13.816 81.5742 13.348 80.3982 13.348C78.7902 13.348 77.3262 14.008 76.0062 15.328Z" fill="#DDDDDD"/>
<circle cx="7" cy="37" r="7" fill="#DDDDDD"/>
<circle cx="25" cy="37" r="7" fill="#BEA1E0"/>
<circle cx="25" cy="19" r="7" fill="#DCBEFF"/>
</svg>
