<svg width="189" height="280" viewBox="0 0 189 280" fill="none" xmlns="http://www.w3.org/2000/svg">
<path d="M128.964 39.8626C129.86 40.7981 130.396 42.3135 130.527 44.4592C130.657 46.605 130.375 49.3139 129.689 52.5308C128.319 58.9612 125.365 67.2965 121.064 76.973C112.466 96.3182 98.53 120.926 81.2918 146.202C64.0536 171.478 46.7925 192.614 32.826 206.355C25.8399 213.228 19.6959 218.233 14.803 220.986C12.3553 222.363 10.2445 223.163 8.51296 223.365C6.78147 223.567 5.48383 223.168 4.58775 222.232C3.69166 221.297 3.15503 219.781 3.02483 217.636C2.89463 215.49 3.17664 212.781 3.86205 209.564C5.23215 203.134 8.18629 194.798 12.4872 185.122C21.0854 165.777 35.0215 141.169 52.2597 115.893C69.4979 90.6172 86.759 69.4809 100.726 55.74C107.712 48.8667 113.856 43.8616 118.748 41.1088C121.196 39.7317 123.307 38.932 125.039 38.7298C126.77 38.5276 128.068 38.9271 128.964 39.8626Z" stroke="#473C55"/>
<path d="M117.056 31.2361C117.952 32.1716 118.488 33.687 118.618 35.8328C118.749 37.9786 118.467 40.6874 117.781 43.9043C116.411 50.3347 113.457 58.67 109.156 68.3466C100.558 87.6918 86.6218 112.299 69.3836 137.575C52.1454 162.851 34.8843 183.987 20.9178 197.728C13.9317 204.602 7.78766 209.607 2.89484 212.36C0.447119 213.737 -1.66368 214.536 -3.39524 214.739C-5.12673 214.941 -6.42437 214.541 -7.32046 213.606C-8.21654 212.67 -8.75317 211.155 -8.88337 209.009C-9.01357 206.863 -8.73157 204.154 -8.04615 200.937C-6.67606 194.507 -3.72192 186.172 0.578956 176.495C9.17717 157.15 23.1133 132.543 40.3515 107.267C57.5897 81.9907 74.8508 60.8544 88.8173 47.1135C95.8034 40.2402 101.947 35.2351 106.84 32.4823C109.288 31.1052 111.399 30.3055 113.13 30.1033C114.862 29.9011 116.159 30.3007 117.056 31.2361Z" stroke="#2C2534"/>
<path d="M152.781 57.117C153.677 58.0525 154.214 59.5679 154.344 61.7136C154.475 63.8594 154.193 66.5683 153.507 69.7852C152.137 76.2156 149.183 84.5509 144.882 94.2274C136.284 113.573 122.348 138.18 105.109 163.456C87.8713 188.732 70.6101 209.868 56.6436 223.609C49.6575 230.482 43.5135 235.488 38.6207 238.24C36.1729 239.618 34.0621 240.417 32.3306 240.619C30.5991 240.822 29.3015 240.422 28.4054 239.487C27.5093 238.551 26.9727 237.036 26.8425 234.89C26.7123 232.744 26.9943 230.035 27.6797 226.818C29.0498 220.388 32.0039 212.053 36.3048 202.376C44.903 183.031 58.8391 158.423 76.0773 133.148C93.3155 107.872 110.577 86.7353 124.543 72.9944C131.529 66.1211 137.673 61.116 142.566 58.3632C145.014 56.9861 147.125 56.1864 148.856 55.9842C150.588 55.782 151.885 56.1815 152.781 57.117Z" stroke="#67577A"/>
<path d="M140.873 48.4896C141.769 49.4251 142.305 50.9404 142.435 53.0862C142.566 55.232 142.284 57.9409 141.598 61.1578C140.228 67.5881 137.274 75.9234 132.973 85.6C124.375 104.945 110.439 129.553 93.2006 154.829C75.9624 180.105 58.7013 201.241 44.7348 214.982C37.7486 221.855 31.6046 226.86 26.7118 229.613C24.2641 230.99 22.1533 231.79 20.4217 231.992C18.6902 232.194 17.3926 231.795 16.4965 230.859C15.6004 229.924 15.0638 228.408 14.9336 226.263C14.8034 224.117 15.0854 221.408 15.7708 218.191C17.1409 211.761 20.095 203.425 24.3959 193.749C32.9941 174.403 46.9303 149.796 64.1684 124.52C81.4066 99.2441 98.6678 78.1078 112.634 64.3669C119.62 57.4937 125.764 52.4885 130.657 49.7357C133.105 48.3586 135.216 47.559 136.947 47.3568C138.679 47.1546 139.976 47.5541 140.873 48.4896Z" stroke="#534564"/>
<path d="M164.69 65.7435C165.586 66.679 166.122 68.1943 166.253 70.3401C166.383 72.4859 166.101 75.1948 165.415 78.4117C164.045 84.8421 161.091 93.1773 156.79 102.854C148.192 122.199 134.256 146.807 117.018 172.083C99.7795 197.358 82.5183 218.495 68.5518 232.236C61.5657 239.109 55.4217 244.114 50.5289 246.867C48.0812 248.244 45.9703 249.044 44.2388 249.246C42.5073 249.448 41.2097 249.048 40.3136 248.113C39.4175 247.178 38.8809 245.662 38.7507 243.516C38.6205 241.371 38.9025 238.662 39.5879 235.445C40.958 229.014 43.9121 220.679 48.213 211.003C56.8112 191.657 70.7473 167.05 87.9855 141.774C105.224 116.498 122.485 95.3617 136.451 81.6208C143.437 74.7476 149.581 69.7424 154.474 66.9897C156.922 65.6125 159.033 64.8129 160.764 64.6107C162.496 64.4085 163.794 64.808 164.69 65.7435Z" stroke="#C2A5E6"/>
</svg>
