<svg width="270" height="178" viewBox="0 0 270 178" fill="none" xmlns="http://www.w3.org/2000/svg">
<path d="M237.795 127.884C236.953 128.63 235.509 129.114 233.375 129.277C231.246 129.44 228.522 129.274 225.259 128.785C218.738 127.807 210.201 125.558 200.228 122.222C180.289 115.552 154.711 104.57 128.226 90.8553C101.741 77.1405 79.3874 63.3011 64.6557 52.0175C57.2867 46.3733 51.8435 41.3826 48.74 37.3767C47.1871 35.3722 46.2366 33.6352 45.9098 32.2007C45.5824 30.7632 45.8929 29.6921 46.7349 28.946C47.577 28.1999 49.0212 27.7159 51.1549 27.5529C53.2842 27.3902 56.008 27.5559 59.2709 28.0452C65.7915 29.0231 74.3289 31.272 84.3023 34.6084C104.241 41.2783 129.819 52.2602 156.304 65.975C182.789 79.6897 205.143 93.5291 219.874 104.813C227.243 110.457 232.687 115.448 235.79 119.454C237.343 121.458 238.293 123.195 238.62 124.63C238.948 126.067 238.637 127.138 237.795 127.884Z" stroke="#473C55"/>
<path d="M245.545 117.747C244.703 118.493 243.259 118.977 241.125 119.14C238.996 119.303 236.272 119.137 233.009 118.648C226.488 117.67 217.951 115.421 207.978 112.085C188.039 105.415 162.46 94.4328 135.976 80.7181C109.491 67.0033 87.1373 53.1639 72.4055 41.8803C65.0365 36.2361 59.5933 31.2454 56.4898 27.2395C54.9369 25.235 53.9864 23.498 53.6596 22.0634C53.3322 20.626 53.6427 19.5549 54.4848 18.8088C55.3268 18.0627 56.771 17.5787 58.9047 17.4157C61.034 17.253 63.7579 17.4187 67.0207 17.908C73.5414 18.8859 82.0787 21.1348 92.0521 24.4712C111.991 31.1411 137.569 42.123 164.054 55.8377C190.539 69.5525 212.892 83.3919 227.624 94.6755C234.993 100.32 240.436 105.31 243.54 109.316C245.093 111.321 246.043 113.058 246.37 114.492C246.697 115.93 246.387 117.001 245.545 117.747Z" stroke="#2C2534"/>
<path d="M222.295 148.158C221.453 148.904 220.008 149.388 217.875 149.551C215.745 149.714 213.022 149.548 209.759 149.059C203.238 148.081 194.701 145.832 184.727 142.496C164.789 135.826 139.21 124.844 112.726 111.129C86.2409 97.4144 63.8871 83.5751 49.1553 72.2914C41.7863 66.6472 36.3431 61.6565 33.2396 57.6506C31.6867 55.6462 30.7362 53.9091 30.4094 52.4746C30.082 51.0371 30.3925 49.9661 31.2346 49.2199C32.0766 48.4738 33.5209 47.9899 35.6546 47.8268C37.7838 47.6641 40.5077 47.8298 43.7705 48.3191C50.2912 49.297 58.8285 51.546 68.8019 54.8823C88.7405 61.5522 114.319 72.5341 140.804 86.2489C167.288 99.9636 189.642 113.803 204.374 125.087C211.743 130.731 217.186 135.722 220.29 139.727C221.843 141.732 222.793 143.469 223.12 144.903C223.447 146.341 223.137 147.412 222.295 148.158Z" stroke="#67577A"/>
<path d="M230.045 138.021C229.203 138.768 227.759 139.251 225.625 139.415C223.496 139.577 220.772 139.412 217.509 138.922C210.988 137.944 202.451 135.695 192.478 132.359C172.539 125.689 146.96 114.707 120.476 100.992C93.9911 87.2777 71.6373 73.4384 56.9055 62.1547C49.5365 56.5105 44.0933 51.5198 40.9898 47.5139C39.4369 45.5094 38.4864 43.7724 38.1596 42.3379C37.8322 40.9004 38.1427 39.8294 38.9848 39.0832C39.8268 38.3371 41.271 37.8531 43.4047 37.6901C45.534 37.5274 48.2579 37.6931 51.5207 38.1824C58.0414 39.1603 66.5787 41.4092 76.5521 44.7456C96.4907 51.4155 122.069 62.3974 148.554 76.1122C175.039 89.8269 197.392 103.666 212.124 114.95C219.493 120.594 224.936 125.585 228.04 129.591C229.593 131.595 230.543 133.332 230.87 134.767C231.197 136.204 230.887 137.275 230.045 138.021Z" stroke="#534564"/>
<path d="M214.545 158.295C213.703 159.041 212.258 159.525 210.125 159.688C207.995 159.851 205.272 159.685 202.009 159.196C195.488 158.218 186.951 155.969 176.977 152.633C157.039 145.963 131.46 134.981 104.976 121.266C78.4909 107.552 56.1371 93.7123 41.4053 82.4286C34.0363 76.7844 28.5931 71.7937 25.4896 67.7878C23.9367 65.7834 22.9862 64.0463 22.6594 62.6118C22.332 61.1743 22.6425 60.1033 23.4846 59.3571C24.3266 58.611 25.7709 58.1271 27.9046 57.964C30.0338 57.8014 32.7577 57.967 36.0205 58.4563C42.5412 59.4342 51.0785 61.6832 61.0519 65.0195C80.9905 71.6895 106.569 82.6713 133.054 96.3861C159.538 110.101 181.892 123.94 196.624 135.224C203.993 140.868 209.436 145.859 212.54 149.865C214.093 151.869 215.043 153.606 215.37 155.041C215.697 156.478 215.387 157.549 214.545 158.295Z" stroke="#C2A5E6"/>
</svg>
